<?xml version="1.0" ?><!DOCTYPE svg  PUBLIC '-//W3C//DTD SVG 1.1//EN'  'http://www.w3.org/Graphics/SVG/1.1/DTD/svg11.dtd'><svg enable-background="new 0 0 91 91" height="91px" id="Layer_1" version="1.1" viewBox="0 0 91 91" width="91px" xml:space="preserve" xmlns="http://www.w3.org/2000/svg" xmlns:xlink="http://www.w3.org/1999/xlink"><g><g><g><g><path d="M43.903,85.854h-8.017c-1.389,0-2.514,1.125-2.514,2.514c0,1.387,1.125,2.512,2.514,2.512h21.06      c1.389,0,2.514-1.125,2.514-2.512c0-1.389-1.125-2.514-2.514-2.514h-8.018v-6.016c16.232-0.68,28.662-9.162,28.662-19.873      c0-1.389-1.125-2.514-2.514-2.514c-1.387,0-2.512,1.125-2.512,2.514c0,8.074-11.787,14.896-25.74,14.896h-0.814      c-13.95,0-25.735-6.822-25.735-14.896c0-1.389-1.125-2.514-2.514-2.514c-1.387,0-2.512,1.125-2.512,2.514      c0,10.711,12.426,19.191,28.653,19.871V85.854z"/><path d="M83.196,37.082H61.628l-2.965-9.939c-0.316-1.066-1.299-1.795-2.406-1.795c-0.025,0-0.051,0.002-0.076,0.002      c-1.141,0.035-2.113,0.832-2.371,1.941l-2.205,9.459l-2.834-16.824c-0.197-1.18-1.201-2.055-2.395-2.094      c-1.24-0.047-2.252,0.771-2.527,1.934L39.88,36.57l-2.81-7.275c-0.389-1.006-1.346-1.631-2.449-1.605      c-1.076,0.045-2.004,0.77-2.307,1.805l-2.223,7.588H8.898c-1.387,0-2.512,1.125-2.512,2.514c0,1.387,1.125,2.512,2.512,2.512      h17.816v9.154c0,8.561,8.732,15.525,19.464,15.525h0.48c10.73,0,19.461-6.965,19.461-15.525v-9.154h17.076      c1.387,0,2.512-1.125,2.512-2.512C85.708,38.207,84.583,37.082,83.196,37.082z M61.095,51.262c0,5.789-6.477,10.5-14.436,10.5      h-0.48c-7.962,0-14.438-4.711-14.438-10.5v-9.154h0.232c1.115,0,2.098-0.734,2.412-1.807l0.668-2.283l3.066,7.932      c0.396,1.029,1.423,1.68,2.515,1.602c1.098-0.074,2.02-0.857,2.273-1.93l2.975-12.598l2.85,16.914      c0.199,1.182,1.203,2.059,2.398,2.096c0.027,0,0.053,0,0.08,0c1.164,0,2.18-0.801,2.445-1.941l2.898-12.441l0.795,2.662      c0.318,1.066,1.297,1.795,2.408,1.795h1.338V51.262z"/><path d="M63.608,31.326c1.389,0,2.514-1.125,2.514-2.514V15.957c0-8.563-8.73-15.531-19.463-15.531h-0.482      c-10.731,0-19.462,6.969-19.462,15.531v10c0,1.387,1.125,2.512,2.512,2.512c1.389,0,2.514-1.125,2.514-2.512v-10      c0-5.793,6.477-10.506,14.437-10.506h0.482c7.961,0,14.438,4.713,14.438,10.506v12.855      C61.097,30.201,62.222,31.326,63.608,31.326z"/></g></g></g></g></svg>