<?xml version="1.0" ?><svg viewBox="0 0 96 96" xmlns="http://www.w3.org/2000/svg"><title/><g id="Delivery"><path d="M79,48.38,74.09,40.2A4.5,4.5,0,0,0,70.23,38H63.15l1.31-6A2.5,2.5,0,0,0,62,29H27.11a2.51,2.51,0,0,0-2.44,2l-.53,2.42a.5.5,0,1,0,1,.22l.53-2.43A1.52,1.52,0,0,1,27.11,30H62a1.5,1.5,0,0,1,1.46,1.82l-1.4,6.41a.56.56,0,0,0-.07.16L57.1,61H34v0a5.65,5.65,0,0,0-.17-.93l0-.11a4.91,4.91,0,0,0-.32-.83L33.39,59a6.13,6.13,0,0,0-.46-.74l-.09-.11a5,5,0,0,0-.58-.64l-.1-.09a4.88,4.88,0,0,0-.69-.53l-.11-.07a6,6,0,0,0-.8-.4l-.1,0a5.36,5.36,0,0,0-.89-.26H29.5a5.05,5.05,0,0,0-2,0h-.07a5.36,5.36,0,0,0-.89.26l-.1,0a6,6,0,0,0-.8.4l-.11.07a4.88,4.88,0,0,0-.69.53l-.1.09a5,5,0,0,0-.58.64l-.09.11a6.13,6.13,0,0,0-.46.74l-.06.12a4.91,4.91,0,0,0-.32.83l0,.11A5.65,5.65,0,0,0,23,61v0H19.19L21,55.66a.5.5,0,1,0-.94-.32L18.81,59h-.37a2,2,0,0,0-1.9,1.37L16,62h7A5.49,5.49,0,0,0,34,62H61A5.49,5.49,0,0,0,72,62h6l.12-.37a2,2,0,0,0-1.24-2.51l2.46-6.93A4.48,4.48,0,0,0,79,48.38ZM28.5,66A4.5,4.5,0,1,1,33,61.5,4.51,4.51,0,0,1,28.5,66Zm38,0A4.5,4.5,0,1,1,71,61.5,4.51,4.51,0,0,1,66.5,66ZM78.4,51.85,75.15,61H72v0a5.65,5.65,0,0,0-.17-.93l0-.11a5.26,5.26,0,0,0-.32-.83L71.39,59a7,7,0,0,0-.46-.74l-.09-.11a5,5,0,0,0-.58-.64l-.1-.1a5.67,5.67,0,0,0-.69-.52l-.11-.07a5,5,0,0,0-.8-.4l-.1,0a5.36,5.36,0,0,0-.89-.26H67.5a5,5,0,0,0-2,0h-.07a5.36,5.36,0,0,0-.89.26l-.1,0a5,5,0,0,0-.8.4l-.11.07a5.67,5.67,0,0,0-.69.52l-.1.1a5,5,0,0,0-.58.64l-.09.11a7,7,0,0,0-.46.74l-.06.12a5.26,5.26,0,0,0-.32.83l0,.11A5.65,5.65,0,0,0,61,61v0h-2.9l4.81-22h7.3a3.49,3.49,0,0,1,3,1.71l4.88,8.18h0A3.5,3.5,0,0,1,78.4,51.85Z"/><path d="M71.51,42.26A2.5,2.5,0,0,0,69.34,41H65.5a.5.5,0,0,0-.48.36l-2,7a.53.53,0,0,0,.08.44.49.49,0,0,0,.4.2h7.55a2.49,2.49,0,0,0,2.17-1.25,2.47,2.47,0,0,0,0-2.49Zm.84,5a1.49,1.49,0,0,1-1.3.75H64.16l1.72-6h3.46a1.48,1.48,0,0,1,1.3.76l1.72,3A1.5,1.5,0,0,1,72.35,47.25Z"/><path d="M28.5,59A2.5,2.5,0,1,0,31,61.5,2.5,2.5,0,0,0,28.5,59Zm0,4A1.5,1.5,0,1,1,30,61.5,1.5,1.5,0,0,1,28.5,63Z"/><path d="M66.5,59A2.5,2.5,0,1,0,69,61.5,2.5,2.5,0,0,0,66.5,59Zm0,4A1.5,1.5,0,1,1,68,61.5,1.5,1.5,0,0,1,66.5,63Z"/><path d="M19,38H41a1,1,0,0,0,0-2H19a1,1,0,0,0,0,2Z"/><path d="M38,47a1,1,0,0,0-1-1H20a1,1,0,0,0,0,2H37A1,1,0,0,0,38,47Z"/><path d="M40,42a1,1,0,0,0-1-1H21a1,1,0,0,0,0,2H39A1,1,0,0,0,40,42Z"/><circle cx="18" cy="42" r="1"/><path d="M22,51a1,1,0,0,0,0,2H35a1,1,0,0,0,0-2Z"/><circle cx="19" cy="52" r="1"/></g></svg>