<?xml version="1.0" ?><svg viewBox="0 0 96 96" xmlns="http://www.w3.org/2000/svg"><title/><g data-name="Quality Product" id="Quality_Product"><path d="M78.85,69.15,65.1,55.39l.73-.22c1.35-.4,2.75-.81,3.39-1.92s.29-2.49,0-3.85a6.44,6.44,0,0,1-.29-2.8,6.28,6.28,0,0,1,1.6-2.19c1-1,2-2.1,2-3.41s-1-2.38-2-3.41a6.28,6.28,0,0,1-1.6-2.19,6.44,6.44,0,0,1,.29-2.8c.32-1.36.66-2.76,0-3.85s-2-1.52-3.39-1.92A6.31,6.31,0,0,1,63.3,25.7a6.31,6.31,0,0,1-1.13-2.53c-.4-1.35-.81-2.75-1.92-3.39s-2.49-.3-3.85,0a6.44,6.44,0,0,1-2.8.29,6.28,6.28,0,0,1-2.19-1.6c-1-1-2.1-2-3.41-2s-2.38,1-3.41,2a6.28,6.28,0,0,1-2.19,1.6,6.44,6.44,0,0,1-2.8-.29c-1.36-.33-2.76-.66-3.85,0s-1.52,2-1.92,3.39A6.31,6.31,0,0,1,32.7,25.7a6.31,6.31,0,0,1-2.53,1.13c-1.35.4-2.75.81-3.39,1.92s-.29,2.49,0,3.84a6.5,6.5,0,0,1,.29,2.81,6.28,6.28,0,0,1-1.6,2.19c-1,1-2,2.1-2,3.41s1,2.38,2,3.41a6.28,6.28,0,0,1,1.6,2.19,6.5,6.5,0,0,1-.29,2.81c-.32,1.35-.66,2.75,0,3.84s2,1.52,3.39,1.92l.73.22L17.15,69.15a.48.48,0,0,0-.12.52.49.49,0,0,0,.41.33l8.61,1L27,79.56a.48.48,0,0,0,.34.41.41.41,0,0,0,.16,0,.51.51,0,0,0,.36-.15L44.31,63.24l.28.26c1,1,2.1,2,3.41,2s2.38-1,3.41-2l.28-.26L68.14,79.85a.51.51,0,0,0,.36.15.45.45,0,0,0,.16,0,.48.48,0,0,0,.34-.41L70,71l8.61-1a.49.49,0,0,0,.41-.33A.48.48,0,0,0,78.85,69.15Zm-51,9.25-.88-8a.51.51,0,0,0-.44-.44l-8-.88L31.92,55.79l.16.08.19.11a2.4,2.4,0,0,1,.43.32,6.31,6.31,0,0,1,1.13,2.53c.4,1.35.81,2.75,1.92,3.39s2.49.29,3.85,0a6.44,6.44,0,0,1,2.8-.29,2.81,2.81,0,0,1,.51.22l.05,0a4.44,4.44,0,0,1,.5.34l0,0,.05,0ZM48,64.5c-.91,0-1.83-.87-2.72-1.72-.21-.21-.43-.41-.65-.61h0c-.17-.15-.34-.3-.53-.44l-.17-.13a3.46,3.46,0,0,0-.45-.29l-.18-.11a3.18,3.18,0,0,0-.64-.26,3,3,0,0,0-.73-.1h-.17c-.22,0-.45,0-.67,0l-.15,0c-.21,0-.43.06-.64.11l-.21,0-.73.17c-1.22.29-2.37.56-3.11.13s-1.12-1.64-1.46-2.8a7,7,0,0,0-1.38-3,3.68,3.68,0,0,0-.6-.47l-.05,0a4.94,4.94,0,0,0-.61-.31L32,54.73h0c-.49-.2-1-.35-1.54-.51-1.16-.34-2.36-.7-2.8-1.46s-.16-1.89.13-3.11a7,7,0,0,0,.28-3.3,6.73,6.73,0,0,0-1.84-2.62c-.84-.89-1.72-1.81-1.72-2.72s.88-1.83,1.72-2.72a6.73,6.73,0,0,0,1.84-2.62,7,7,0,0,0-.28-3.3c-.29-1.22-.57-2.37-.13-3.11s1.64-1.12,2.8-1.46a7,7,0,0,0,3-1.38,6.88,6.88,0,0,0,1.38-3c.34-1.16.7-2.36,1.46-2.8s1.89-.16,3.11.13a7,7,0,0,0,3.3.28,6.73,6.73,0,0,0,2.62-1.84c.89-.84,1.81-1.72,2.72-1.72s1.83.88,2.72,1.72a6.73,6.73,0,0,0,2.62,1.84,7,7,0,0,0,3.3-.28c1.22-.29,2.37-.56,3.11-.13s1.12,1.64,1.46,2.8a7,7,0,0,0,1.38,3,7,7,0,0,0,3,1.38c1.16.34,2.36.7,2.8,1.46s.16,1.89-.13,3.11a7,7,0,0,0-.28,3.3,6.73,6.73,0,0,0,1.84,2.62c.84.89,1.72,1.81,1.72,2.72s-.88,1.83-1.72,2.72a6.73,6.73,0,0,0-1.84,2.62,7,7,0,0,0,.28,3.3c.29,1.22.57,2.37.13,3.11s-1.64,1.12-2.8,1.46c-.52.16-1,.31-1.55.51h0l-.15.07a4.33,4.33,0,0,0-.61.3l0,0a3.38,3.38,0,0,0-.61.47,7,7,0,0,0-1.38,3c-.34,1.16-.7,2.36-1.46,2.8a3.68,3.68,0,0,1-2.55,0l-.56-.13a9.9,9.9,0,0,0-2.52-.39,3.34,3.34,0,0,0-.78.11,3.18,3.18,0,0,0-.64.26l-.18.1-.46.31-.16.11-.53.45h0c-.22.2-.44.4-.65.61C49.83,63.62,48.91,64.5,48,64.5ZM69.44,70a.51.51,0,0,0-.44.44l-.88,8L52.44,62.57l0,0,.06,0a4.44,4.44,0,0,1,.5-.34l.05,0a2.81,2.81,0,0,1,.51-.22,3.43,3.43,0,0,1,1.36,0c.46.07,1,.18,1.44.3l.23.05a5.36,5.36,0,0,0,3.42.07,1.21,1.21,0,0,0,.2-.09c1.11-.64,1.52-2,1.92-3.39A6.31,6.31,0,0,1,63.3,56.3a2.4,2.4,0,0,1,.43-.32l.2-.11.15-.08L77.41,69.12Z"/><path d="M33,37a.5.5,0,0,0-.6.37c-.07.35-.14.69-.2,1a.5.5,0,0,0,.41.57h.08a.5.5,0,0,0,.5-.42c0-.33.11-.65.19-1A.5.5,0,0,0,33,37Z"/><path d="M32.53,42.07a.49.49,0,0,0-.45.54c0,.36.08.71.14,1a.49.49,0,0,0,.49.42h.09a.5.5,0,0,0,.41-.57c-.06-.33-.1-.65-.13-1A.5.5,0,0,0,32.53,42.07Z"/><path d="M34.37,47.28a.49.49,0,0,0-.66-.25.51.51,0,0,0-.25.66c.15.32.31.64.48,1a.51.51,0,0,0,.44.26.53.53,0,0,0,.24-.06.51.51,0,0,0,.2-.68C34.66,47.87,34.51,47.58,34.37,47.28Z"/><path d="M37.15,51.35a.51.51,0,0,0-.71,0,.5.5,0,0,0,0,.71c.25.25.5.5.76.74a.53.53,0,0,0,.34.13.54.54,0,0,0,.37-.16.51.51,0,0,0,0-.71C37.61,51.83,37.38,51.59,37.15,51.35Z"/><path d="M35.13,32.34a.51.51,0,0,0-.69.16c-.19.3-.36.6-.53.92a.49.49,0,0,0,.2.67.53.53,0,0,0,.24.06.49.49,0,0,0,.44-.26c.16-.29.32-.58.5-.86A.5.5,0,0,0,35.13,32.34Z"/><path d="M59.58,51.8a.49.49,0,0,0,.37-.16c.24-.27.46-.54.68-.82a.5.5,0,1,0-.79-.61c-.2.26-.41.51-.63.76a.49.49,0,0,0,.37.83Z"/><path d="M62.46,37a.52.52,0,0,0,.49.37l.13,0a.51.51,0,0,0,.35-.62c-.09-.34-.2-.67-.31-1a.5.5,0,1,0-.95.33C62.28,36.38,62.38,36.7,62.46,37Z"/><path d="M62.11,47.45a.43.43,0,0,0,.19,0,.5.5,0,0,0,.46-.31c.14-.32.26-.65.38-1a.5.5,0,0,0-.31-.63.51.51,0,0,0-.64.31c-.11.31-.22.62-.35.93A.49.49,0,0,0,62.11,47.45Z"/><path d="M60.39,32.54a.5.5,0,0,0,.41.22.47.47,0,0,0,.28-.09.49.49,0,0,0,.13-.69,10.25,10.25,0,0,0-.62-.85.5.5,0,1,0-.79.61C60,32,60.2,32.27,60.39,32.54Z"/><path d="M63,41q0,.49,0,1a.49.49,0,0,0,.46.53h0a.5.5,0,0,0,.5-.46c0-.35,0-.71,0-1.06v-.07a.47.47,0,0,0-.5-.46A.52.52,0,0,0,63,41Z"/><path d="M46.78,56c-.33,0-.66-.06-1-.11a.5.5,0,1,0-.14,1q.51.08,1.05.12h0a.5.5,0,0,0,0-1Z"/><path d="M41.73,27.32a.78.78,0,0,0,.21,0c.3-.14.6-.26.91-.38a.49.49,0,0,0,.3-.64.5.5,0,0,0-.64-.3l-1,.4a.5.5,0,0,0-.25.66A.49.49,0,0,0,41.73,27.32Z"/><path d="M42,54.75c-.3-.13-.6-.28-.9-.43a.5.5,0,0,0-.67.21.51.51,0,0,0,.21.68c.32.16.63.31,1,.45a.46.46,0,0,0,.2.05.52.52,0,0,0,.46-.3A.5.5,0,0,0,42,54.75Z"/><path d="M51.94,56.51a.5.5,0,0,0,.36-.61.49.49,0,0,0-.6-.36c-.32.08-.65.15-1,.21a.5.5,0,0,0-.4.58.49.49,0,0,0,.49.41h.09C51.26,56.67,51.6,56.6,51.94,56.51Z"/><path d="M46.67,26.06h0l1-.05a.5.5,0,0,0,.49-.51.51.51,0,0,0-.52-.49l-1,.06a.5.5,0,0,0-.46.54A.52.52,0,0,0,46.67,26.06Z"/><path d="M56.16,28.41q.42.27.81.57a.49.49,0,0,0,.3.1.48.48,0,0,0,.4-.2.5.5,0,0,0-.1-.7c-.28-.21-.57-.41-.86-.61a.51.51,0,0,0-.7.15A.5.5,0,0,0,56.16,28.41Z"/><path d="M37.93,28.56l-.8.69a.5.5,0,0,0,0,.71.48.48,0,0,0,.36.16.47.47,0,0,0,.34-.13c.25-.23.5-.44.75-.65a.5.5,0,0,0,.08-.7A.51.51,0,0,0,37.93,28.56Z"/><path d="M56.21,53.56c-.27.18-.56.35-.85.51a.49.49,0,0,0-.18.68.49.49,0,0,0,.43.26.47.47,0,0,0,.25-.07c.3-.17.6-.36.9-.55a.5.5,0,0,0,.14-.69A.49.49,0,0,0,56.21,53.56Z"/><path d="M51.63,26.44q.49.12,1,.27a.4.4,0,0,0,.15,0,.51.51,0,0,0,.48-.35.51.51,0,0,0-.33-.63l-1-.29a.51.51,0,0,0-.61.37A.49.49,0,0,0,51.63,26.44Z"/><path d="M55.34,37.67a.51.51,0,0,0-.71-.05L45.7,45.27,42,40.37a.5.5,0,0,0-.7-.1.51.51,0,0,0-.1.7l4,5.33h0s0,0,0,0l.11.08.06,0a.54.54,0,0,0,.21,0h0a.55.55,0,0,0,.28-.09H46l9.33-8A.51.51,0,0,0,55.34,37.67Z"/></g></svg>