<?xml version="1.0" ?><!DOCTYPE svg  PUBLIC '-//W3C//DTD SVG 1.1//EN'  'http://www.w3.org/Graphics/SVG/1.1/DTD/svg11.dtd'><svg enable-background="new 0 0 24 24" height="24px" id="Layer_1" version="1.1" viewBox="0 0 24 24" width="24px" xml:space="preserve" xmlns="http://www.w3.org/2000/svg" xmlns:xlink="http://www.w3.org/1999/xlink"><g><g><path d="M22.6,14.3c-0.2,0-0.4-0.1-0.4-0.3c-0.1-0.3-0.2-0.5-0.2-1.1c0-0.9-0.1-1.5-0.2-2.3c-0.5-2.8-1.9-5.1-4-6.7    c-1.8-1.4-3.7-2-6.1-2.2c-0.8,0-1.1-0.1-1.5-0.3C9.8,1.2,9.8,0.9,9.9,0.7c0.2-0.2,0.5-0.3,0.7-0.1c0.1,0.1,0.1,0.1,0.9,0.1    c2.6,0.2,4.7,0.9,6.7,2.4c2.4,1.8,3.9,4.2,4.4,7.3c0.1,0.8,0.2,1.5,0.3,2.4c0,0.6,0,0.7,0.1,0.7c0.1,0.2,0,0.5-0.2,0.7    C22.7,14.3,22.6,14.3,22.6,14.3z" fill="#000000"/></g><g><path d="M19.6,13.3c-0.1,0-0.2,0-0.2-0.1c-0.7-0.3-0.7-1-0.7-1.7c0-1.1-0.3-2.2-0.8-3.1c-0.6-1-1.4-1.9-2.4-2.5    c-0.8-0.5-2.1-0.9-3.3-1c-0.4,0-0.9-0.1-1.2-0.5c-0.2-0.2-0.2-0.5,0.1-0.7s0.5-0.2,0.7,0.1c0,0,0.1,0.1,0.5,0.2    C13.6,4.1,15,4.6,16,5.2c1.1,0.7,2.1,1.7,2.7,2.8c0.6,1,0.9,2.4,0.9,3.6c0,0.7,0.1,0.7,0.2,0.8c0.2,0.1,0.3,0.4,0.2,0.7    C19.9,13.2,19.8,13.3,19.6,13.3z" fill="#000000"/></g><g><path d="M16.2,12.2c-0.1,0-0.2,0-0.3-0.1c-0.4-0.3-0.5-0.6-0.5-1.2c-0.1-0.6-0.1-0.9-0.3-1.3c-0.3-0.7-0.9-1-1.9-1.2    c-0.6-0.1-0.9-0.2-1.2-0.5c-0.2-0.2-0.2-0.5,0.1-0.7c0.2-0.2,0.5-0.2,0.7,0.1c0.1,0.1,0.1,0.1,0.6,0.2c1.4,0.2,2.2,0.7,2.7,1.7    c0.2,0.5,0.3,1,0.4,1.6c0,0.4,0.1,0.4,0.1,0.5c0.2,0.2,0.3,0.5,0.1,0.7C16.5,12.1,16.4,12.2,16.2,12.2z" fill="#000000"/></g><g><path d="M18.7,23.5c-0.5,0-0.8-0.1-1.3-0.3c-0.3-0.1-0.6-0.3-0.9-0.4L14.8,22c-0.1-0.1-0.2-0.1-0.4-0.2L14,21.6    c0,0-0.2-0.1-0.2-0.1l-0.3-0.2c-0.2-0.1-0.3-0.2-0.5-0.3l-0.3-0.2c-0.2-0.1-0.3-0.2-0.5-0.3c-0.1-0.1-0.2-0.1-0.3-0.2    c-0.1-0.1-0.3-0.2-0.4-0.3L11.5,20C9,18.3,6.9,16.2,5,13.7c-0.2-0.3-0.4-0.5-0.6-0.8c-0.2-0.3-0.3-0.5-0.5-0.8    c-1.2-1.8-2.1-3.6-2.7-5.4C0.7,5.4,0.6,4.6,1.1,3.6C1.4,3.2,2.2,2.4,2.7,2c1-0.7,1.4-1,1.9-1.1c0.3-0.1,0.8,0,1.2,0.1    c0.2,0.1,0.4,0.2,0.5,0.3C7.1,1.8,9,4.4,9.6,5.5C10,6.4,10.2,7,10,7.5C9.9,8,9.6,8.3,8.7,9C8.5,9.2,8.3,9.3,8.2,9.4c0,0,0,0,0,0    c0,0-0.1,0.1-0.1,0.1C8,9.6,8,9.9,8,10.1c0,0.4,0.3,1.4,0.8,2.2c0.4,0.6,1,1.4,1.7,2c0.8,0.7,1.5,1.2,2.2,1.6    c0.9,0.4,1.4,0.6,1.7,0.4c0.1,0,0.1-0.1,0.2-0.1c0,0,0.3-0.3,0.5-0.7c0.6-0.7,0.8-1,1.3-1.1c0.6-0.2,1.3-0.2,1.9,0.2    c0.4,0.2,1.3,0.7,1.8,1.1c0.7,0.5,2.3,1.8,2.6,2.1c0.5,0.6,0.6,1.4,0.3,2.2c-0.3,0.8-1.4,2.1-2.2,2.7c-0.7,0.5-1.3,0.8-2,0.8    C18.8,23.5,18.7,23.5,18.7,23.5z M14.5,20.7l0.4,0.2c0.1,0.1,0.2,0.1,0.3,0.2l1.6,0.8c0.3,0.1,0.6,0.3,0.9,0.4    c0.5,0.2,0.7,0.2,0.9,0.2l0.2,0c0.5,0,0.9-0.2,1.4-0.6c0.6-0.5,1.6-1.7,1.8-2.3c0.2-0.5,0.1-0.9-0.1-1.2c-0.2-0.2-1.6-1.4-2.4-1.9    c-0.5-0.4-1.4-0.9-1.7-1.1c-0.4-0.2-0.8-0.2-1.1-0.1c-0.2,0.1-0.3,0.1-0.9,0.8c-0.6,0.7-0.6,0.8-0.7,0.8c0,0-0.1,0.1-0.1,0.1    c0,0-0.1,0.1-0.3,0.1c-0.7,0.3-1.4,0.2-2.6-0.4c-0.8-0.4-1.6-0.9-2.5-1.7c-0.7-0.7-1.5-1.5-1.9-2.2c-0.6-0.9-1-2.1-1-2.7    C7,9.7,7.1,9.2,7.3,9c0,0,0.1-0.1,0.1-0.1l0,0c0,0,0-0.1,0.1-0.1l0,0l0,0c0,0,0-0.1,0.1-0.1l0,0c0.1-0.1,0.3-0.3,0.5-0.5    c0.8-0.7,0.9-0.8,1-1C9.1,7,9.1,6.7,8.7,6c-0.6-1.2-2.4-3.5-3-3.9C5.7,2.1,5.5,2,5.4,2C5.2,1.9,4.9,1.9,4.8,1.9    C4.6,2,4.1,2.2,3.3,2.8C2.8,3.2,2.1,3.9,2,4.1C1.7,4.7,1.7,5.1,2.1,6.4c0.6,1.8,1.5,3.5,2.6,5.2c0.2,0.3,0.3,0.5,0.5,0.8    c0.2,0.3,0.4,0.5,0.6,0.8c1.8,2.4,3.9,4.4,6.2,6.1l0.1,0.1c0.1,0.1,0.3,0.2,0.4,0.3c0.1,0.1,0.2,0.1,0.3,0.2    c0.2,0.1,0.3,0.2,0.4,0.3l0.3,0.2c0.2,0.1,0.3,0.2,0.4,0.3l0.3,0.2l-0.1,0.5L14.5,20.7z" fill="#000000"/></g></g></svg>